<?xml version="1.0" standalone="no"?>
<!DOCTYPE svg PUBLIC "-//W3C//DTD SVG 20010904//EN"
 "http://www.w3.org/TR/2001/REC-SVG-20010904/DTD/svg10.dtd">
<svg version="1.0" xmlns="http://www.w3.org/2000/svg"
 width="1024.000000pt" height="1024.000000pt" viewBox="0 0 1024.000000 1024.000000"
 preserveAspectRatio="xMidYMid meet">

<g transform="translate(0.000000,1024.000000) scale(0.100000,-0.100000)"
fill="#000000" stroke="none">
<path d="M0 5120 l0 -5120 5120 0 5120 0 0 5120 0 5120 -5120 0 -5120 0 0
-5120z m5285 2791 c49 -23 82 -58 125 -136 18 -33 106 -190 195 -350 89 -159
175 -315 192 -345 16 -30 54 -98 83 -150 30 -52 72 -129 95 -170 23 -41 140
-250 259 -465 539 -963 529 -946 534 -1003 5 -60 15 -59 -98 -5 -89 43 -268
115 -365 147 l-80 26 -74 133 c-91 161 -535 959 -601 1077 -140 255 -333 596
-340 603 -7 8 -22 -15 -90 -138 -177 -316 -228 -409 -257 -460 -19 -33 -46
-83 -60 -111 l-26 -52 40 -73 c47 -86 123 -222 183 -329 23 -41 60 -109 82
-150 23 -41 44 -79 48 -85 4 -5 22 -37 40 -70 18 -33 52 -94 76 -136 24 -42
44 -81 44 -87 0 -6 -30 -13 -67 -16 -38 -4 -135 -16 -216 -27 -82 -12 -150
-19 -152 -17 -2 2 -53 91 -113 198 -60 107 -128 228 -150 268 -23 41 -42 76
-42 78 0 2 -10 21 -23 42 -28 43 -70 120 -140 252 -45 84 -51 102 -51 156 0
57 5 70 74 195 95 173 144 262 210 379 29 52 63 113 75 135 140 256 351 625
368 644 53 58 149 76 222 42z m460 -2730 c125 -16 255 -44 420 -91 167 -48
453 -180 620 -285 487 -308 883 -796 1104 -1359 103 -263 117 -354 67 -440
-15 -25 -46 -59 -68 -74 -85 -55 -215 -26 -269 61 -10 18 -31 68 -45 112 -167
530 -493 981 -924 1277 -364 250 -777 378 -1220 378 -339 0 -632 -70 -945
-225 -396 -196 -723 -500 -956 -887 -53 -87 -159 -300 -159 -317 0 -8 143 -11
455 -11 250 0 455 1 455 3 0 2 -28 53 -61 113 -226 402 -212 372 -207 454 6
105 61 173 161 201 29 8 50 7 90 -5 71 -21 100 -54 184 -206 16 -30 97 -174
178 -320 222 -396 225 -402 225 -464 0 -75 -39 -150 -98 -187 l-46 -29 -833 0
c-911 0 -873 -2 -936 58 -76 71 -86 160 -36 312 214 657 614 1192 1154 1541
203 131 455 249 640 299 195 53 274 70 485 99 82 12 445 6 565 -8z m-91 -806
c110 -14 218 -37 314 -67 48 -14 12 44 368 -596 41 -73 106 -189 145 -257 l70
-125 278 0 278 0 43 -92 c48 -104 123 -325 114 -339 -8 -14 -838 -12 -886 3
-62 18 -107 72 -204 248 -50 91 -201 361 -334 600 -284 509 -350 629 -350 635
0 8 45 5 164 -10z m2611 -2149 c135 -179 272 -358 321 -419 12 -15 25 -27 29
-27 4 0 5 128 4 283 -4 311 -4 311 -65 323 -34 6 -49 34 -19 34 8 1 56 1 105
1 50 0 97 0 105 -1 8 0 15 -7 15 -15 0 -10 -10 -15 -34 -15 -62 0 -61 3 -61
-387 l0 -354 -45 3 c-43 3 -47 6 -113 88 -37 47 -141 181 -230 298 -89 118
-170 224 -179 235 -17 21 -18 9 -17 -253 1 -151 4 -286 8 -300 5 -19 16 -27
49 -34 30 -7 42 -15 40 -25 -3 -13 -23 -16 -114 -18 -61 -1 -116 2 -123 7 -22
13 -2 30 35 30 28 0 36 5 44 26 6 14 10 157 10 332 0 341 -1 348 -62 354 -17
2 -33 8 -35 15 -3 9 18 13 74 15 43 2 86 1 96 -1 9 -2 82 -89 162 -195z
m-5605 26 c135 -350 211 -537 226 -554 9 -9 26 -18 38 -20 11 -2 21 -10 21
-18 0 -13 -22 -15 -135 -15 -120 0 -135 2 -138 18 -3 13 4 17 31 17 59 0 62
16 24 121 l-34 94 -156 3 -155 2 -31 -85 c-41 -115 -41 -123 9 -131 30 -5 40
-11 40 -26 0 -17 -8 -18 -112 -16 -92 2 -113 6 -113 18 0 9 12 17 30 20 25 4
35 16 63 70 31 62 164 385 239 578 32 84 38 92 62 92 24 0 30 -11 91 -168z
m797 148 c56 -25 83 -70 83 -138 0 -92 -51 -162 -145 -197 -25 -10 -45 -21
-45 -24 0 -7 23 -42 163 -246 27 -38 65 -85 85 -103 46 -41 34 -54 -44 -50
l-59 3 -73 110 c-40 61 -102 151 -137 200 -35 50 -65 97 -67 104 -2 10 10 15
43 17 119 6 183 90 156 201 -17 67 -57 93 -146 93 -36 0 -73 -5 -81 -10 -13
-8 -15 -56 -15 -328 0 -353 0 -352 62 -352 27 0 34 -4 31 -17 -3 -16 -18 -18
-148 -18 -122 0 -145 2 -145 15 0 10 13 17 40 20 31 4 41 10 46 30 4 14 7 160
8 325 1 335 -1 347 -58 355 -19 3 -36 11 -39 18 -3 9 45 12 220 12 198 0 228
-3 265 -20z m421 -10 c26 -74 267 -569 273 -563 8 8 155 335 225 500 l39 93
107 0 c91 0 107 -2 102 -15 -4 -8 -18 -15 -33 -15 -15 0 -36 -6 -47 -14 -18
-14 -19 -29 -19 -339 0 -358 0 -357 61 -357 28 0 34 -4 34 -20 0 -20 -5 -21
-147 -18 -124 3 -148 5 -148 18 0 10 12 16 38 18 30 3 40 9 48 29 5 15 8 145
7 314 l-3 289 -94 -213 c-52 -116 -116 -263 -143 -326 -52 -125 -62 -141 -79
-124 -6 6 -37 71 -69 144 -31 74 -86 199 -122 279 -36 80 -68 155 -72 168 -4
12 -12 22 -18 22 -6 0 -9 -93 -6 -273 3 -303 4 -307 65 -307 27 0 34 -4 31
-17 -3 -16 -17 -18 -118 -18 -101 0 -115 2 -118 18 -3 13 4 17 32 17 68 0 67
-5 64 355 -3 355 -3 355 -64 355 -24 0 -34 5 -34 15 0 12 18 15 99 15 l99 0
10 -30z m1072 15 c0 -10 -10 -15 -34 -15 -60 0 -61 -6 -61 -289 0 -238 1 -258
20 -291 64 -111 309 -112 382 -2 28 42 36 140 31 375 -3 163 -5 180 -22 193
-11 8 -32 14 -48 14 -18 0 -28 5 -28 15 0 13 21 15 125 15 106 0 124 -2 119
-15 -4 -8 -18 -15 -34 -15 -16 0 -35 -6 -43 -14 -17 -18 -28 -164 -26 -377 1
-166 -8 -208 -52 -262 -60 -73 -176 -106 -310 -87 -94 13 -159 49 -190 103
-23 41 -24 50 -29 323 -6 310 -6 314 -66 314 -24 0 -34 5 -34 15 0 13 23 15
150 15 127 0 150 -2 150 -15z m1155 -12 l60 -20 -3 -50 c-4 -70 -16 -108 -33
-108 -8 0 -15 12 -17 30 -6 64 -11 72 -59 93 -64 27 -104 34 -180 34 -123 -1
-213 -55 -265 -161 -20 -39 -23 -61 -23 -156 0 -93 4 -118 24 -162 34 -75 113
-147 187 -169 69 -20 167 -14 223 13 l36 18 0 84 c0 95 -1 96 -77 106 -32 4
-48 11 -48 21 0 11 24 14 135 14 118 0 135 -2 135 -16 0 -9 -8 -23 -17 -30
-15 -10 -18 -29 -18 -121 l0 -108 -70 -23 c-38 -13 -108 -28 -155 -33 -216
-22 -368 50 -443 209 -30 62 -32 75 -32 172 0 97 2 110 31 170 50 104 124 169
239 207 60 19 292 11 370 -14z m455 12 c0 -11 -11 -15 -40 -15 -29 0 -42 -5
-50 -19 -5 -11 -10 -78 -10 -150 l0 -131 211 0 211 0 -4 139 c-1 77 -6 143
-10 147 -4 4 -24 10 -45 13 -20 3 -38 12 -41 19 -3 9 31 12 147 12 128 0 151
-2 151 -15 0 -10 -10 -15 -34 -15 -61 0 -61 0 -61 -355 0 -355 0 -355 61 -355
27 0 34 -4 34 -19 0 -19 -8 -20 -147 -18 -124 2 -148 4 -148 17 0 10 13 17 40
20 51 6 53 14 54 208 l1 152 -211 0 -211 0 4 -163 c3 -179 9 -197 59 -197 31
0 48 -18 29 -30 -8 -5 -76 -9 -152 -9 -132 -1 -138 -1 -138 19 0 16 7 20 34
20 61 0 61 -1 61 357 0 310 -1 325 -19 339 -11 8 -32 14 -47 14 -15 0 -29 7
-33 15 -5 13 16 15 149 15 131 0 155 -2 155 -15z m1080 -197 c47 -117 108
-273 136 -345 60 -154 75 -180 106 -185 13 -2 23 -10 23 -18 0 -13 -22 -15
-135 -15 -113 0 -135 2 -135 15 0 9 14 17 38 21 20 3 40 9 44 13 4 4 -8 52
-27 107 l-35 99 -155 0 -156 0 -33 -96 c-20 -55 -30 -99 -25 -104 5 -5 25 -12
44 -17 20 -5 35 -16 35 -24 0 -11 -21 -14 -110 -14 -97 0 -110 2 -113 18 -3
12 3 17 21 17 41 0 52 19 149 255 27 66 81 202 121 302 67 170 74 182 98 183
24 0 30 -12 109 -212z"/>
<path d="M2490 2173 c-40 -103 -80 -212 -80 -220 0 -1 56 -3 125 -3 89 0 125
3 125 12 0 19 -114 318 -122 318 -3 0 -25 -48 -48 -107z"/>
<path d="M7462 2198 c-17 -46 -44 -118 -60 -160 -16 -42 -27 -80 -24 -83 8 -8
240 -6 245 3 6 9 -114 322 -124 322 -3 0 -20 -37 -37 -82z"/>
</g>
</svg>
